<svg width="20" height="6" viewBox="0 0 20 6" fill="none" xmlns="http://www.w3.org/2000/svg">
    <path d="M5.19941 2.99986C5.19941 3.63638 4.94656 4.24683 4.49647 4.69692C4.04638 5.147 3.43593 5.39986 2.79941 5.39986C2.16289 5.39986 1.55245 5.147 1.10236 4.69692C0.65227 4.24683 0.399414 3.63638 0.399414 2.99986C0.399414 2.36334 0.65227 1.75289 1.10236 1.30281C1.55245 0.852718 2.16289 0.599861 2.79941 0.599861C3.43593 0.599861 4.04638 0.852718 4.49647 1.30281C4.94656 1.75289 5.19941 2.36334 5.19941 2.99986ZM12.3994 2.99986C12.3994 3.63638 12.1466 4.24683 11.6965 4.69692C11.2464 5.147 10.6359 5.39986 9.99941 5.39986C9.3629 5.39986 8.75245 5.147 8.30236 4.69692C7.85227 4.24683 7.59941 3.63638 7.59941 2.99986C7.59941 2.36334 7.85227 1.75289 8.30236 1.30281C8.75245 0.852718 9.3629 0.599861 9.99941 0.599861C10.6359 0.599861 11.2464 0.852718 11.6965 1.30281C12.1466 1.75289 12.3994 2.36334 12.3994 2.99986ZM17.1994 5.39986C17.8359 5.39986 18.4464 5.147 18.8965 4.69692C19.3466 4.24683 19.5994 3.63638 19.5994 2.99986C19.5994 2.36334 19.3466 1.75289 18.8965 1.30281C18.4464 0.852718 17.8359 0.599861 17.1994 0.599861C16.5629 0.599861 15.9524 0.852718 15.5024 1.30281C15.0523 1.75289 14.7994 2.36334 14.7994 2.99986C14.7994 3.63638 15.0523 4.24683 15.5024 4.69692C15.9524 5.147 16.5629 5.39986 17.1994 5.39986Z" fill="#9796A8"/>
</svg>